<?xml version="1.0" encoding="UTF-8" standalone="no"?>
<!-- Created with Inkscape (http://www.inkscape.org/) -->

<svg
   xmlns:dc="http://purl.org/dc/elements/1.1/"
   xmlns:cc="http://creativecommons.org/ns#"
   xmlns:rdf="http://www.w3.org/1999/02/22-rdf-syntax-ns#"
   xmlns:svg="http://www.w3.org/2000/svg"
   xmlns="http://www.w3.org/2000/svg"
   xmlns:sodipodi="http://sodipodi.sourceforge.net/DTD/sodipodi-0.dtd"
   xmlns:inkscape="http://www.inkscape.org/namespaces/inkscape"
   width="420"
   height="420"
   id="svg2"
   version="1.1"
   inkscape:version="0.48.4 r9939"
   sodipodi:docname="kawaiituxicon.svg"
   inkscape:export-filename="/home/mashudi/kawaiituxiconfacebook.png"
   inkscape:export-xdpi="385"
   inkscape:export-ydpi="385">
  <defs
     id="defs4" />
  <sodipodi:namedview
     id="base"
     pagecolor="#ffffff"
     bordercolor="#666666"
     borderopacity="1.0"
     inkscape:pageopacity="0"
     inkscape:pageshadow="2"
     inkscape:zoom="0.69100944"
     inkscape:cx="8.4803966"
     inkscape:cy="-53.973699"
     inkscape:document-units="px"
     inkscape:current-layer="layer1"
     showgrid="false"
     inkscape:window-width="1366"
     inkscape:window-height="713"
     inkscape:window-x="0"
     inkscape:window-y="24"
     inkscape:window-maximized="1" />
  <metadata
     id="metadata7">
    <rdf:RDF>
      <cc:Work
         rdf:about="">
        <dc:format>image/svg+xml</dc:format>
        <dc:type
           rdf:resource="http://purl.org/dc/dcmitype/StillImage" />
        <dc:title></dc:title>
      </cc:Work>
    </rdf:RDF>
  </metadata>
  <g
     inkscape:label="Layer 1"
     inkscape:groupmode="layer"
     id="layer1"
     transform="translate(0,-632.3622)">
    <g
       id="g3781"
       transform="matrix(9.9999999,0,0,9.9999999,-2345.3827,-4243.2692)"
       inkscape:export-xdpi="300"
       inkscape:export-ydpi="300">
      <path
         sodipodi:type="arc"
         style="fill:#3b3f45;fill-opacity:1;fill-rule:evenodd;stroke:none"
         id="path3772"
         sodipodi:cx="284.4761"
         sodipodi:cy="384.37946"
         sodipodi:rx="85.78437"
         sodipodi:ry="85.78437"
         d="m 370.26048,384.37946 c 0,47.3774 -38.40698,85.78437 -85.78438,85.78437 -47.37739,0 -85.78437,-38.40697 -85.78437,-85.78437 0,-47.3774 38.40698,-85.78437 85.78437,-85.78437 47.3774,0 85.78438,38.40697 85.78438,85.78437 z"
         transform="matrix(0.24479984,0,0,0.24479984,185.89857,414.46711)" />
      <path
         inkscape:connector-curvature="0"
         id="path2996"
         d="m 255.1279,511.36562 c -7.10371,0.17997 -13.04854,5.03084 -14.87771,11.59467 3.82962,4.06538 9.26222,6.60076 15.28809,6.60076 6.02586,0 11.45847,-2.53538 15.28809,-6.60076 -1.86422,-6.68957 -8.00409,-11.59467 -15.28809,-11.59467 -0.13692,0 -0.27429,-0.003 -0.41038,0 z"
         style="fill:#ffffff;fill-opacity:1;fill-rule:evenodd;stroke:none" />
      <g
         transform="matrix(0.18495988,0,0,0.18495988,185.36328,437.46837)"
         id="g3774">
        <path
           sodipodi:nodetypes="ccc"
           inkscape:connector-curvature="0"
           id="path3770"
           d="m 309.73592,409.69445 c 34.0975,43.58813 96.64867,52.75036 139.34167,-0.0776 -40.21295,-23.85639 -84.65856,-36.70173 -139.34167,0.0776 z"
           style="fill:#ffee71;fill-opacity:1;stroke:none" />
        <path
           style="fill:#fff5a6;fill-opacity:1;stroke:none"
           d="m 309.70681,409.61017 c 34.0975,-35.23267 96.7066,-42.70133 139.3996,0 -40.21295,19.28333 -84.71649,29.72908 -139.3996,0 z"
           id="path3000"
           inkscape:connector-curvature="0"
           sodipodi:nodetypes="ccc" />
      </g>
    </g>
  </g>
</svg>
